<svg width="400" height="80" viewBox="0 0 400 80" xmlns="http://www.w3.org/2000/svg">
  <style>
    @import url('https://fonts.googleapis.com/css2?family=Architects+Daughter&amp;display=swap');
    .text { font-family: 'Architects Daughter', cursive, sans-serif; font-size: 48px; font-weight: bold; }
  </style>
  <g fill="none" stroke="#60A5FA" stroke-width="2.5" stroke-linecap="round" stroke-linejoin="round">
    <!-- Sketchy House Icon -->
    <!-- Roof -->
    <path d="M 8 38 L 30 14 L 52 38" opacity="0.8" />
    <path d="M 12 36 L 30 18 L 48 36" opacity="0.6" />
    <path d="M 5 35 L 30 10 L 55 35" />
    <!-- Base -->
    <path d="M 15 35 L 15 65 L 45 65 L 45 35" opacity="0.9" />
    <path d="M 18 38 L 18 62 L 42 62 L 42 38" opacity="0.5" />
    <!-- Door -->
    <path d="M 25 65 L 25 45 L 35 45 L 35 65" opacity="0.7" />
    <!-- Blueprint Grid background (subtle) -->
    <path d="M 0 20 H 60 M 0 40 H 60 M 0 60 H 60 M 20 0 V 80 M 40 0 V 80" stroke="#60A5FA" stroke-width="0.5" opacity="0.2" />
  </g>
  <text x="75" y="60" class="text" fill="#60A5FA">HELFERCHEN</text>
</svg>
